# This file uses centimeters as units for non-parametric coordinates.

v -3.000000 -1.250000 -0.750000
v -3.000000 -2.000000 0.000000
v -3.000000 -0.500000 0.000000
v -3.000000 -1.250000 0.750000
v -2.600000 -0.500000 0.000000
v -2.600000 -1.250000 0.750000
v -2.200000 -0.500000 0.000000
v -2.200000 -1.250000 0.750000
v -1.800000 -0.500000 0.000000
v -1.800000 -1.250000 0.750000
v -1.400000 -0.500000 0.000000
v -1.400000 -1.250000 0.750000
v -1.000000 -0.500000 0.000000
v -1.000000 -1.250000 0.750000
v -0.600000 -0.500000 0.000000
v -0.600000 -1.250000 0.750000
v -0.200000 -0.500000 0.000000
v -0.200000 -1.250000 0.750000
v 0.200000 -0.500000 0.000000
v 0.200000 -1.250000 0.750000
v 0.600000 -0.500000 -0.000000
v 0.600000 -1.250000 0.750000
v 1.000000 -0.500000 -0.000000
v 1.000000 -1.250000 0.750000
v 1.400000 -0.500000 -0.000000
v 1.400000 -1.250000 0.750000
v 1.800000 -0.500000 -0.000000
v 1.800000 -1.250000 0.750000
v 2.200000 -0.500000 -0.000000
v 2.200000 -1.250000 0.750000
v 2.600000 -0.500000 -0.000000
v 2.600000 -1.250000 0.750000
v 3.000000 -0.500000 -0.000000
v 3.000000 -1.250000 0.750000
v 3.000000 -1.250000 -0.750000
v 3.000000 -2.000000 -0.000000
v 2.600000 -1.250000 -0.750000
v 2.600000 -2.000000 -0.000000
v 2.200000 -1.250000 -0.750000
v 2.200000 -2.000000 -0.000000
v 1.800000 -1.250000 -0.750000
v 1.800000 -2.000000 -0.000000
v 1.400000 -1.250000 -0.750000
v 1.400000 -2.000000 -0.000000
v 1.000000 -1.250000 -0.750000
v 1.000000 -2.000000 -0.000000
v 0.600000 -1.250000 -0.750000
v 0.600000 -2.000000 -0.000000
v 0.200000 -1.250000 -0.750000
v 0.200000 -2.000000 -0.000000
v -0.200000 -1.250000 -0.750000
v -0.200000 -2.000000 -0.000000
v -0.600000 -1.250000 -0.750000
v -0.600000 -2.000000 0.000000
v -1.000000 -1.250000 -0.750000
v -1.000000 -2.000000 0.000000
v -1.400000 -1.250000 -0.750000
v -1.400000 -2.000000 0.000000
v -1.800000 -1.250000 -0.750000
v -1.800000 -2.000000 0.000000
v -2.200000 -1.250000 -0.750000
v -2.200000 -2.000000 0.000000
v -2.600000 -1.250000 -0.750000
v -2.600000 -2.000000 0.000000
vt 0.375000 0.000000
vt 0.625000 0.000000
vt 0.375000 0.250000
vt 0.625000 0.250000
vt 0.375000 0.266667
vt 0.625000 0.266667
vt 0.375000 0.283333
vt 0.625000 0.283333
vt 0.375000 0.300000
vt 0.625000 0.300000
vt 0.375000 0.316667
vt 0.625000 0.316667
vt 0.375000 0.333333
vt 0.625000 0.333333
vt 0.375000 0.350000
vt 0.625000 0.350000
vt 0.375000 0.366667
vt 0.625000 0.366667
vt 0.375000 0.383333
vt 0.625000 0.383333
vt 0.375000 0.400000
vt 0.625000 0.400000
vt 0.375000 0.416667
vt 0.625000 0.416667
vt 0.375000 0.433333
vt 0.625000 0.433333
vt 0.375000 0.450000
vt 0.625000 0.450000
vt 0.375000 0.466667
vt 0.625000 0.466667
vt 0.375000 0.483334
vt 0.625000 0.483334
vt 0.375000 0.500000
vt 0.625000 0.500000
vt 0.375000 0.750000
vt 0.625000 0.750000
vt 0.375000 0.766667
vt 0.625000 0.766667
vt 0.375000 0.783333
vt 0.625000 0.783333
vt 0.375000 0.800000
vt 0.625000 0.800000
vt 0.375000 0.816667
vt 0.625000 0.816667
vt 0.375000 0.833333
vt 0.625000 0.833333
vt 0.375000 0.850000
vt 0.625000 0.850000
vt 0.375000 0.866667
vt 0.625000 0.866667
vt 0.375000 0.883333
vt 0.625000 0.883333
vt 0.375000 0.900000
vt 0.625000 0.900000
vt 0.375000 0.916667
vt 0.625000 0.916667
vt 0.375000 0.933333
vt 0.625000 0.933333
vt 0.375000 0.950000
vt 0.625000 0.950000
vt 0.375000 0.966667
vt 0.625000 0.966667
vt 0.375000 0.983333
vt 0.625000 0.983333
vt 0.375000 1.000000
vt 0.625000 1.000000
vt 0.875000 0.000000
vt 0.858333 0.000000
vt 0.841667 0.000000
vt 0.825000 0.000000
vt 0.808333 0.000000
vt 0.791667 0.000000
vt 0.775000 0.000000
vt 0.758333 0.000000
vt 0.741667 0.000000
vt 0.725000 0.000000
vt 0.708333 0.000000
vt 0.691667 0.000000
vt 0.675000 0.000000
vt 0.658334 0.000000
vt 0.641667 0.000000
vt 0.875000 0.250000
vt 0.858333 0.250000
vt 0.841667 0.250000
vt 0.825000 0.250000
vt 0.808333 0.250000
vt 0.791667 0.250000
vt 0.775000 0.250000
vt 0.758333 0.250000
vt 0.741667 0.250000
vt 0.725000 0.250000
vt 0.708333 0.250000
vt 0.691667 0.250000
vt 0.675000 0.250000
vt 0.658334 0.250000
vt 0.641667 0.250000
vt 0.125000 0.000000
vt 0.141667 0.000000
vt 0.158333 0.000000
vt 0.175000 0.000000
vt 0.191667 0.000000
vt 0.208333 0.000000
vt 0.225000 0.000000
vt 0.241667 0.000000
vt 0.258333 0.000000
vt 0.275000 0.000000
vt 0.291667 0.000000
vt 0.308333 0.000000
vt 0.325000 0.000000
vt 0.341667 0.000000
vt 0.358333 0.000000
vt 0.125000 0.250000
vt 0.141667 0.250000
vt 0.158333 0.250000
vt 0.175000 0.250000
vt 0.191667 0.250000
vt 0.208333 0.250000
vt 0.225000 0.250000
vt 0.241667 0.250000
vt 0.258333 0.250000
vt 0.275000 0.250000
vt 0.291667 0.250000
vt 0.308333 0.250000
vt 0.325000 0.250000
vt 0.341667 0.250000
vt 0.358333 0.250000
vn -1.000000 0.000000 0.000000
vn -1.000000 0.000000 0.000000
vn -1.000000 0.000000 0.000000
vn -1.000000 0.000000 0.000000
vn 0.000000 0.707107 0.707107
vn 0.000000 0.707107 0.707107
vn 0.000000 0.707107 0.707107
vn 0.000000 0.707107 0.707107
vn 0.000000 0.707107 0.707107
vn 0.000000 0.707107 0.707107
vn 0.000000 0.707107 0.707107
vn 0.000000 0.707107 0.707107
vn 0.000000 0.707107 0.707107
vn 0.000000 0.707107 0.707107
vn 0.000000 0.707107 0.707107
vn 0.000000 0.707107 0.707107
vn 0.000000 0.707107 0.707107
vn 0.000000 0.707107 0.707107
vn 0.000000 0.707107 0.707107
vn 0.000000 0.707107 0.707107
vn 0.000000 0.707107 0.707107
vn 0.000000 0.707107 0.707107
vn 0.000000 0.707107 0.707107
vn 0.000000 0.707107 0.707107
vn 0.000000 0.707107 0.707107
vn 0.000000 0.707107 0.707107
vn 0.000000 0.707107 0.707107
vn 0.000000 0.707107 0.707107
vn 0.000000 0.707107 0.707107
vn 0.000000 0.707107 0.707107
vn 0.000000 0.707107 0.707107
vn 0.000000 0.707107 0.707107
vn 0.000000 0.707107 0.707107
vn 0.000000 0.707107 0.707107
vn 0.000000 0.707107 0.707107
vn 0.000000 0.707107 0.707107
vn 1.000000 0.000000 -0.000000
vn 1.000000 0.000000 -0.000000
vn 1.000000 0.000000 -0.000000
vn 1.000000 0.000000 -0.000000
vn -0.000000 -0.707107 -0.707107
vn -0.000000 -0.707107 -0.707107
vn -0.000000 -0.707107 -0.707107
vn -0.000000 -0.707107 -0.707107
vn -0.000000 -0.707107 -0.707107
vn -0.000000 -0.707107 -0.707107
vn -0.000000 -0.707107 -0.707107
vn -0.000000 -0.707107 -0.707107
vn -0.000000 -0.707107 -0.707107
vn -0.000000 -0.707107 -0.707107
vn -0.000000 -0.707107 -0.707107
vn -0.000000 -0.707107 -0.707107
vn -0.000000 -0.707107 -0.707107
vn -0.000000 -0.707107 -0.707107
vn -0.000000 -0.707107 -0.707107
vn -0.000000 -0.707107 -0.707107
vn -0.000000 -0.707107 -0.707107
vn -0.000000 -0.707107 -0.707107
vn -0.000000 -0.707107 -0.707107
vn -0.000000 -0.707107 -0.707107
vn -0.000000 -0.707107 -0.707107
vn -0.000000 -0.707107 -0.707107
vn -0.000000 -0.707107 -0.707107
vn -0.000000 -0.707107 -0.707107
vn -0.000000 -0.707107 -0.707107
vn -0.000000 -0.707107 -0.707107
vn -0.000000 -0.707107 -0.707107
vn -0.000000 -0.707107 -0.707107
vn -0.000000 -0.707107 -0.707107
vn -0.000000 -0.707107 -0.707107
vn -0.000000 -0.707107 -0.707107
vn -0.000000 -0.707107 -0.707107
vn 0.000000 -0.707107 0.707107
vn 0.000000 -0.707107 0.707107
vn 0.000000 -0.707107 0.707107
vn 0.000000 -0.707107 0.707107
vn 0.000000 -0.707107 0.707107
vn 0.000000 -0.707107 0.707107
vn 0.000000 -0.707107 0.707107
vn 0.000000 -0.707107 0.707107
vn 0.000000 -0.707107 0.707107
vn 0.000000 -0.707107 0.707107
vn 0.000000 -0.707107 0.707107
vn 0.000000 -0.707107 0.707107
vn 0.000000 -0.707107 0.707107
vn 0.000000 -0.707107 0.707107
vn 0.000000 -0.707107 0.707107
vn 0.000000 -0.707107 0.707107
vn 0.000000 -0.707107 0.707107
vn 0.000000 -0.707107 0.707107
vn 0.000000 -0.707107 0.707107
vn 0.000000 -0.707107 0.707107
vn 0.000000 -0.707107 0.707107
vn 0.000000 -0.707107 0.707107
vn 0.000000 -0.707107 0.707107
vn 0.000000 -0.707107 0.707107
vn 0.000000 -0.707107 0.707107
vn 0.000000 -0.707107 0.707107
vn 0.000000 -0.707107 0.707107
vn 0.000000 -0.707107 0.707107
vn 0.000000 -0.707107 0.707107
vn 0.000000 -0.707107 0.707107
vn 0.000000 -0.707107 0.707107
vn 0.000000 -0.707107 0.707107
vn -0.000000 0.707107 -0.707107
vn -0.000000 0.707107 -0.707107
vn -0.000000 0.707107 -0.707107
vn -0.000000 0.707107 -0.707107
vn -0.000000 0.707107 -0.707107
vn -0.000000 0.707107 -0.707107
vn -0.000000 0.707107 -0.707107
vn -0.000000 0.707107 -0.707107
vn -0.000000 0.707107 -0.707107
vn -0.000000 0.707107 -0.707107
vn -0.000000 0.707107 -0.707107
vn -0.000000 0.707107 -0.707107
vn -0.000000 0.707107 -0.707107
vn -0.000000 0.707107 -0.707107
vn -0.000000 0.707107 -0.707107
vn -0.000000 0.707107 -0.707107
vn -0.000000 0.707107 -0.707107
vn -0.000000 0.707107 -0.707107
vn -0.000000 0.707107 -0.707107
vn -0.000000 0.707107 -0.707107
vn -0.000000 0.707107 -0.707107
vn -0.000000 0.707107 -0.707107
vn -0.000000 0.707107 -0.707107
vn -0.000000 0.707107 -0.707107
vn -0.000000 0.707107 -0.707107
vn -0.000000 0.707107 -0.707107
vn -0.000000 0.707107 -0.707107
vn -0.000000 0.707107 -0.707107
vn -0.000000 0.707107 -0.707107
vn -0.000000 0.707107 -0.707107
vn -0.000000 0.707107 -0.707107
vn -0.000000 0.707107 -0.707107
f 1/1/1 2/2/2 3/3/3
f 3/3/3 2/2/2 4/4/4
f 3/3/5 4/4/6 5/5/7
f 5/5/7 4/4/6 6/6/8
f 5/5/7 6/6/8 7/7/9
f 7/7/9 6/6/8 8/8/10
f 7/7/9 8/8/10 9/9/11
f 9/9/11 8/8/10 10/10/12
f 9/9/11 10/10/12 11/11/13
f 11/11/13 10/10/12 12/12/14
f 11/11/13 12/12/14 13/13/15
f 13/13/15 12/12/14 14/14/16
f 13/13/15 14/14/16 15/15/17
f 15/15/17 14/14/16 16/16/18
f 15/15/17 16/16/18 17/17/19
f 17/17/19 16/16/18 18/18/20
f 17/17/19 18/18/20 19/19/21
f 19/19/21 18/18/20 20/20/22
f 19/19/21 20/20/22 21/21/23
f 21/21/23 20/20/22 22/22/24
f 21/21/23 22/22/24 23/23/25
f 23/23/25 22/22/24 24/24/26
f 23/23/25 24/24/26 25/25/27
f 25/25/27 24/24/26 26/26/28
f 25/25/27 26/26/28 27/27/29
f 27/27/29 26/26/28 28/28/30
f 27/27/29 28/28/30 29/29/31
f 29/29/31 28/28/30 30/30/32
f 29/29/31 30/30/32 31/31/33
f 31/31/33 30/30/32 32/32/34
f 31/31/33 32/32/34 33/33/35
f 33/33/35 32/32/34 34/34/36
f 33/33/37 34/34/38 35/35/39
f 35/35/39 34/34/38 36/36/40
f 35/35/41 36/36/42 37/37/43
f 37/37/43 36/36/42 38/38/44
f 37/37/43 38/38/44 39/39/45
f 39/39/45 38/38/44 40/40/46
f 39/39/45 40/40/46 41/41/47
f 41/41/47 40/40/46 42/42/48
f 41/41/47 42/42/48 43/43/49
f 43/43/49 42/42/48 44/44/50
f 43/43/49 44/44/50 45/45/51
f 45/45/51 44/44/50 46/46/52
f 45/45/51 46/46/52 47/47/53
f 47/47/53 46/46/52 48/48/54
f 47/47/53 48/48/54 49/49/55
f 49/49/55 48/48/54 50/50/56
f 49/49/55 50/50/56 51/51/57
f 51/51/57 50/50/56 52/52/58
f 51/51/57 52/52/58 53/53/59
f 53/53/59 52/52/58 54/54/60
f 53/53/59 54/54/60 55/55/61
f 55/55/61 54/54/60 56/56/62
f 55/55/61 56/56/62 57/57/63
f 57/57/63 56/56/62 58/58/64
f 57/57/63 58/58/64 59/59/65
f 59/59/65 58/58/64 60/60/66
f 59/59/65 60/60/66 61/61/67
f 61/61/67 60/60/66 62/62/68
f 61/61/67 62/62/68 63/63/69
f 63/63/69 62/62/68 64/64/70
f 63/63/69 64/64/70 1/65/71
f 1/65/71 64/64/70 2/66/72
f 38/68/73 36/67/74 32/83/75
f 32/83/75 36/67/74 34/82/76
f 40/69/77 38/68/73 30/84/78
f 30/84/78 38/68/73 32/83/75
f 42/70/79 40/69/77 28/85/80
f 28/85/80 40/69/77 30/84/78
f 44/71/81 42/70/79 26/86/82
f 26/86/82 42/70/79 28/85/80
f 46/72/83 44/71/81 24/87/84
f 24/87/84 44/71/81 26/86/82
f 48/73/85 46/72/83 22/88/86
f 22/88/86 46/72/83 24/87/84
f 50/74/87 48/73/85 20/89/88
f 20/89/88 48/73/85 22/88/86
f 52/75/89 50/74/87 18/90/90
f 18/90/90 50/74/87 20/89/88
f 54/76/91 52/75/89 16/91/92
f 16/91/92 52/75/89 18/90/90
f 56/77/93 54/76/91 14/92/94
f 14/92/94 54/76/91 16/91/92
f 58/78/95 56/77/93 12/93/96
f 12/93/96 56/77/93 14/92/94
f 60/79/97 58/78/95 10/94/98
f 10/94/98 58/78/95 12/93/96
f 62/80/99 60/79/97 8/95/100
f 8/95/100 60/79/97 10/94/98
f 64/81/101 62/80/99 6/96/102
f 6/96/102 62/80/99 8/95/100
f 2/2/103 64/81/101 4/4/104
f 4/4/104 64/81/101 6/96/102
f 35/97/105 37/98/106 33/112/107
f 33/112/107 37/98/106 31/113/108
f 37/98/106 39/99/109 31/113/108
f 31/113/108 39/99/109 29/114/110
f 39/99/109 41/100/111 29/114/110
f 29/114/110 41/100/111 27/115/112
f 41/100/111 43/101/113 27/115/112
f 27/115/112 43/101/113 25/116/114
f 43/101/113 45/102/115 25/116/114
f 25/116/114 45/102/115 23/117/116
f 45/102/115 47/103/117 23/117/116
f 23/117/116 47/103/117 21/118/118
f 47/103/117 49/104/119 21/118/118
f 21/118/118 49/104/119 19/119/120
f 49/104/119 51/105/121 19/119/120
f 19/119/120 51/105/121 17/120/122
f 51/105/121 53/106/123 17/120/122
f 17/120/122 53/106/123 15/121/124
f 53/106/123 55/107/125 15/121/124
f 15/121/124 55/107/125 13/122/126
f 55/107/125 57/108/127 13/122/126
f 13/122/126 57/108/127 11/123/128
f 57/108/127 59/109/129 11/123/128
f 11/123/128 59/109/129 9/124/130
f 59/109/129 61/110/131 9/124/130
f 9/124/130 61/110/131 7/125/132
f 61/110/131 63/111/133 7/125/132
f 7/125/132 63/111/133 5/126/134
f 63/111/133 1/1/135 5/126/134
f 5/126/134 1/1/135 3/3/136
