# This file uses centimeters as units for non-parametric coordinates.

v -6.250000 3.310660 -7.560660
v -5.189340 3.310660 -6.500000
v -6.250000 3.310660 -5.439340
v -7.310660 3.310660 -6.500000
v -6.250000 3.310660 -8.621320
v -4.128680 3.310660 -6.500000
v -6.250000 3.310660 -4.378680
v -8.371320 3.310660 -6.500000
v -6.250000 2.603553 -7.914213
v -4.835787 2.603553 -6.500000
v -6.250000 2.603553 -5.085787
v -7.664213 2.603553 -6.500000
v -6.250000 1.896447 -7.207107
v -5.542893 1.896447 -6.500000
v -6.250000 1.896447 -5.792893
v -6.957107 1.896447 -6.500000
v -6.250000 3.310660 -6.500000
v -6.250000 1.189340 -6.500000
vt 0.500000 0.125000
vt 0.375000 0.250000
vt 0.500000 0.375000
vt 0.625000 0.250000
vt 0.500000 0.000000
vt 0.250000 0.250000
vt 0.500000 0.500000
vt 0.750000 0.250000
vt 0.250000 0.500000
vt 0.375000 0.500000
vt 0.500000 0.500000
vt 0.625000 0.500000
vt 0.750000 0.500000
vt 0.333333 0.666667
vt 0.416667 0.666667
vt 0.500000 0.666667
vt 0.583333 0.666667
vt 0.666667 0.666667
vt 0.416667 0.833333
vt 0.458333 0.833333
vt 0.500000 0.833333
vt 0.541667 0.833333
vt 0.583333 0.833333
vt 0.500000 0.250000
vt 0.500000 1.000000
vn -0.000000 1.000000 0.000000
vn -0.000000 1.000000 -0.000000
vn -0.000000 1.000000 0.000000
vn -0.000000 1.000000 0.000000
vn -0.000000 1.000000 -0.000000
vn -0.000000 1.000000 0.000000
vn -0.000000 1.000000 0.000000
vn -0.000000 1.000000 0.000000
vn 0.577350 -0.577350 -0.577350
vn 0.577350 -0.577350 -0.577350
vn 0.577350 -0.577350 -0.577350
vn 0.577350 -0.577350 -0.577350
vn 0.577350 -0.577350 0.577350
vn 0.577350 -0.577350 0.577350
vn 0.577350 -0.577350 0.577350
vn 0.577350 -0.577350 0.577350
vn -0.577350 -0.577350 0.577350
vn -0.577350 -0.577350 0.577350
vn -0.577350 -0.577350 0.577350
vn -0.577350 -0.577350 0.577350
vn -0.577350 -0.577350 -0.577350
vn -0.577350 -0.577350 -0.577350
vn -0.577350 -0.577350 -0.577350
vn -0.577350 -0.577350 -0.577350
vn 0.577350 -0.577350 -0.577350
vn 0.577350 -0.577350 -0.577350
vn 0.577350 -0.577350 0.577350
vn 0.577350 -0.577350 0.577350
vn -0.577350 -0.577350 0.577350
vn -0.577350 -0.577350 0.577350
vn -0.577350 -0.577350 -0.577350
vn -0.577350 -0.577350 -0.577350
vn -0.000000 1.000000 -0.000000
vn 0.577350 -0.577350 -0.577350
vn 0.577350 -0.577350 0.577350
vn -0.577350 -0.577350 0.577350
vn -0.577350 -0.577350 -0.577350
f 1/1/1 2/2/2 5/5/3
f 5/5/3 2/2/2 6/6/4
f 2/2/2 3/3/5 6/6/4
f 6/6/4 3/3/5 7/7/6
f 3/3/5 4/4/7 7/7/6
f 7/7/6 4/4/7 8/8/8
f 4/4/7 1/1/1 8/8/8
f 8/8/8 1/1/1 5/5/3
f 5/9/9 6/10/10 9/14/11
f 9/14/11 6/10/10 10/15/12
f 6/10/13 7/11/14 10/15/15
f 10/15/15 7/11/14 11/16/16
f 7/11/17 8/12/18 11/16/19
f 11/16/19 8/12/18 12/17/20
f 8/12/21 5/13/22 12/17/23
f 12/17/23 5/13/22 9/18/24
f 9/14/11 10/15/12 13/19/25
f 13/19/25 10/15/12 14/20/26
f 10/15/15 11/16/16 14/20/27
f 14/20/27 11/16/16 15/21/28
f 11/16/19 12/17/20 15/21/29
f 15/21/29 12/17/20 16/22/30
f 12/17/23 9/18/24 16/22/31
f 16/22/31 9/18/24 13/23/32
f 2/2/2 1/1/1 17/24/33
f 3/3/5 2/2/2 17/24/33
f 4/4/7 3/3/5 17/24/33
f 1/1/1 4/4/7 17/24/33
f 13/19/25 14/20/26 18/25/34
f 14/20/27 15/21/28 18/25/35
f 15/21/29 16/22/30 18/25/36
f 16/22/31 13/23/32 18/25/37
